<mxfile host="Electron" modified="2023-03-31T13:58:23.349Z" agent="Mozilla/5.0 (X11; Linux x86_64) AppleWebKit/537.36 (KHTML, like Gecko) draw.io/21.1.2 Chrome/106.0.5249.199 Electron/21.4.3 Safari/537.36" etag="594aOinb-vd5naruORyE" version="21.1.2" type="device" pages="2">
  <diagram name="Languages And Tools" id="C8Ai0VrTsd29n1nFN0_9">
    <mxGraphModel dx="819" dy="1666" grid="1" gridSize="10" guides="1" tooltips="1" connect="1" arrows="1" fold="1" page="1" pageScale="1" pageWidth="827" pageHeight="1169" math="0" shadow="0">
      <root>
        <mxCell id="0" />
        <mxCell id="1" parent="0" />
        <mxCell id="b4SL3L8GiF_6VbBWIvOY-2" value="" style="shape=image;verticalLabelPosition=bottom;labelBackgroundColor=default;verticalAlign=top;aspect=fixed;imageAspect=0;image=https://www.docker.com/wp-content/uploads/2021/10/Moby-logo-sm.png;clipPath=inset(19.67% 16% 20.67% 14%);" parent="1" vertex="1">
          <mxGeometry x="1159.1599999999999" y="2.65" width="244.76" height="208.63" as="geometry" />
        </mxCell>
        <mxCell id="b4SL3L8GiF_6VbBWIvOY-3" value="" style="shape=image;verticalLabelPosition=bottom;labelBackgroundColor=default;verticalAlign=top;aspect=fixed;imageAspect=0;image=https://www.suse.com/c/wp-content/uploads/2021/09/rancher_blog_compose.png;" parent="1" vertex="1">
          <mxGeometry x="930" y="430.47" width="203.14" height="200" as="geometry" />
        </mxCell>
        <mxCell id="b4SL3L8GiF_6VbBWIvOY-4" value="" style="shape=image;verticalLabelPosition=bottom;labelBackgroundColor=default;verticalAlign=top;aspect=fixed;imageAspect=0;image=https://upload.wikimedia.org/wikipedia/commons/thumb/c/c3/Python-logo-notext.svg/1200px-Python-logo-notext.svg.png;" parent="1" vertex="1">
          <mxGeometry x="510" y="17.35" width="178.75" height="195.68" as="geometry" />
        </mxCell>
        <mxCell id="b4SL3L8GiF_6VbBWIvOY-13" value="" style="shape=image;verticalLabelPosition=bottom;labelBackgroundColor=default;verticalAlign=top;aspect=fixed;imageAspect=0;image=https://res.cloudinary.com/practicaldev/image/fetch/s--Fk5z1Zqu--/c_imagga_scale,f_auto,fl_progressive,h_420,q_auto,w_1000/https://dev-to-uploads.s3.amazonaws.com/uploads/articles/mzxsak79ywsgqjv54x0r.png;clipPath=inset(0% 28% 5.56% 25%);" parent="1" vertex="1">
          <mxGeometry x="700" y="430.47" width="236.42" height="199.53" as="geometry" />
        </mxCell>
        <mxCell id="b4SL3L8GiF_6VbBWIvOY-15" value="" style="shape=image;verticalLabelPosition=bottom;labelBackgroundColor=default;verticalAlign=top;aspect=fixed;imageAspect=0;image=https://flask.palletsprojects.com/en/2.2.x/_images/flask-logo.png;" parent="1" vertex="1">
          <mxGeometry x="370" y="215.59" width="549" height="214.88" as="geometry" />
        </mxCell>
        <mxCell id="b4SL3L8GiF_6VbBWIvOY-16" value="" style="shape=image;verticalLabelPosition=bottom;labelBackgroundColor=default;verticalAlign=top;aspect=fixed;imageAspect=0;image=https://blog.desdelinux.net/wp-content/uploads/2022/05/Nginx.jpg;" parent="1" vertex="1">
          <mxGeometry x="919" y="214.47000000000003" width="520" height="216" as="geometry" />
        </mxCell>
        <mxCell id="b4SL3L8GiF_6VbBWIvOY-22" value="" style="shape=image;verticalLabelPosition=bottom;labelBackgroundColor=default;verticalAlign=top;aspect=fixed;imageAspect=0;image=https://cdn.thingiverse.com/assets/7c/1f/3b/22/c4/Scott_Gibb_Cartoon.jpg;" parent="1" vertex="1">
          <mxGeometry x="827" y="-196" width="195.64" height="195.64" as="geometry" />
        </mxCell>
        <mxCell id="b4SL3L8GiF_6VbBWIvOY-8" value="" style="shape=image;verticalLabelPosition=bottom;labelBackgroundColor=default;verticalAlign=top;aspect=fixed;imageAspect=0;image=https://cdn-icons-png.flaticon.com/512/5968/5968267.png;clipPath=inset(0% 13.33% 0.33% 13.33%);" parent="1" vertex="1">
          <mxGeometry x="681" y="10.39" width="154.23" height="209.61" as="geometry" />
        </mxCell>
        <mxCell id="b4SL3L8GiF_6VbBWIvOY-10" value="" style="shape=image;verticalLabelPosition=bottom;labelBackgroundColor=default;verticalAlign=top;aspect=fixed;imageAspect=0;image=https://1000logos.net/wp-content/uploads/2020/09/JavaScript-Logo.png;clipPath=inset(0% 26.67% 0% 26.33%);" parent="1" vertex="1">
          <mxGeometry x="1010" y="9.100000000000001" width="159.71" height="212.94" as="geometry" />
        </mxCell>
        <mxCell id="-nAFItqbGS9GruxhTbxd-1" value="" style="shape=image;verticalLabelPosition=bottom;labelBackgroundColor=default;verticalAlign=top;aspect=fixed;imageAspect=0;image=https://upload.wikimedia.org/wikipedia/commons/thumb/d/d5/CSS3_logo_and_wordmark.svg/1200px-CSS3_logo_and_wordmark.svg.png;" vertex="1" parent="1">
          <mxGeometry x="850.1800000000001" y="10.39" width="149.27" height="210.36" as="geometry" />
        </mxCell>
      </root>
    </mxGraphModel>
  </diagram>
  <diagram id="jo7uoiHvgsO03GEbdFB4" name="Architecture">
    <mxGraphModel dx="1943" dy="1204" grid="1" gridSize="10" guides="1" tooltips="1" connect="1" arrows="1" fold="1" page="1" pageScale="1" pageWidth="827" pageHeight="1169" math="0" shadow="0">
      <root>
        <mxCell id="0" />
        <mxCell id="1" parent="0" />
        <mxCell id="xicnDhv7UWAI21oDy9mo-1" value="" style="shape=image;verticalLabelPosition=bottom;labelBackgroundColor=default;verticalAlign=top;aspect=fixed;imageAspect=0;image=https://upload.wikimedia.org/wikipedia/commons/f/f1/Raspberry_Pi_4_Model_B_-_Side.jpg;" vertex="1" parent="1">
          <mxGeometry x="540" y="440" width="220.92" height="130" as="geometry" />
        </mxCell>
        <mxCell id="hOKIO8DQP1o-la0QWbHK-1" value="Fan Controller Stack" style="shape=image;verticalLabelPosition=bottom;labelBackgroundColor=default;verticalAlign=top;aspect=fixed;imageAspect=0;image=https://www.suse.com/c/wp-content/uploads/2021/09/rancher_blog_compose.png;" vertex="1" parent="1">
          <mxGeometry x="760.92" y="405" width="203.14" height="200" as="geometry" />
        </mxCell>
        <mxCell id="4RZhgtHsSrFHhhY4TR-D-1" value="Front End" style="shape=image;verticalLabelPosition=bottom;labelBackgroundColor=default;verticalAlign=top;aspect=fixed;imageAspect=0;image=data:image/png,iVBORw0KGgoAAAANSUhEUgAAANEAAADyCAMAAADk3NBFAAAApVBMVEUAljn///8AlTVCqWIAkCYAjh/B4csAkzAAlDMAjyIAkSsAjyUAjRz5/fvA4Mn1+/fp6emgz63J5NHX691Trm2DwpV2vIqNjY0on02u17rw+fOTyqPU6tvO59aZzaiLi4va2tr09PQ0o1ZktXzm9OtVr29uuYMWm0Tg8OakpKSt1rk4pFmWy6VGqWQAhwBzu4e8vLyZmZnNzc2urq7FxcWqqqrh4eEeE7clAAAKIklEQVR4nOWda1ujPBCGkzQYSGlrq/Sobg/26Ha1urv//6e9YN3aAwmTkFDC+3zYy/1g4S7M48wQJghXTejaJ2BcxRDdtaNu1L4r5FgFELUiFnDGGA9Y1LJ/OPtEbc7RP3Hetn4820Q3fYqORfsdy0e0S/R8HxB0KuLdP1s9pk2iRuT56FK+FzUsHtUi0QbxFJ7PcEIDe4e1RvQwrQt4EtWnD7YObIloOAvPA+gsnMLZ0M6h7RCNOJPyJGJ8ZOXYNoiaS1EAnYXTsmnh6OaJVi8Xji289YKXlfHjmyYadlMdWyTf65oOJ8NEbZYdQKdizHBiZJSouaTZCBeiS6OJkUGi1daDBtCpSDg3mBgZI2p1A5UAOhWj5hIjU0THNYOOODOVGJkh6vRlKQ9MwfTRyLmYIHqeaQbQqYhnJDEyQBRRVccWyUhilJtowPIF0Kk4yp0Y5SR6fAkM8iQKtjlbRrmIhmYC6FR+8JqrY5SHaBSYCqBTMfp0FSJozaAj2r8pnOhuC64ZdEQC7cRIj6ilVjPoKK4z9MJJi6gNKLrzi+vVGRpEnb5OzaAjrQasMlFKm9SedMJJkagRhbYD6FRMuQGrRrQh9hxbJNUGrAqRvE1qT/UXlQYsnCizTWpPSg1YMNHIWM2gI4U6A0jUFD5nKErgBiyI6K5WoGOLRIIaqAELIBp2C3ZskfwQ0oDNJmobLVLzCZIYZRF1tNqk9pSdGMmJVvcWitR8It69PJxkRI0oR5vUnlggTYwkRBu/PAF0Kk42GkSPBtqk9lTvCxuwAiJDbVJ7It5MUGekE1035YGJ0fTEKI1ocIWaQUecpCVGl0RxynPtUwUrqF02YM+JWotSOrZIfrA47xidET05EECnumjAnhDdlCzlgYkubwREqyK7PCZFguPE6EDUsN8mtSff6zbOicpUM+jou87YE92VOuWBqd6/+yZqlzzlgYl47X9EUXjtkzGkMNoTDaoCFCMNEqKh25ZwKjaMibpVIuJdjBoupgli0QZqVoyoiSLXUlO5WIRm7uY+afJnaJvrjyvxGfON/nkm+T6PbFFN+/cJr/Pp/HVx3+fUUFnFA1RbzKa8rv1xpKZPRJejQ0n8PJgxmvtScfTzqyroLHS/In0idv50tLXJuyiAjo5apau5Xu6sTVSfpTRqN7nuPX72sHXk6XyKLhGNLnmS66T5xSYKLvrzTzo9KU0iNksFivVT64uNFaS03hYal1yTiIifDWz0EvnU76ilkXHqEVHZkomNVv+Spjaxn9SR9Ii4BChZGan8gaLbWCOL1iISR9Fec/VvVnTV58opmhZR5nvHL8oRfWl0e6nfdlpENGupxBCpfqYnsBr1UkePKHNV7J2qh3uCD7opCxFuKnp4+YnwSC15cIAIz5Ri2gUiPFUxXieIWiqG5wQRvlM4GzeIVAzPESKFDM8VIryAGp4zROAMzx0iqOG5Q4RXsFByiAg3QUmrS0Swjo5TRCDDc4sIYniOEQEMzzEivMq871wjwjdZGZ5zRPgpw8PdI8oyvLISyVbKb6WGV1airYSosZQdp6xEv9KfKu31LDu5shJ5nqx/3JGkQ6UlQqHs5aC2GKm8RIjLXpp+FRpeiYnIUmZ4NZHhlZgIMS3DKzMRol0J0kpwhqUmQnLDS8/wyk2EPKnhpWZ4JSeSG1437STLTiQ3vLQMr+xEcsPDKYZXeiK54T1f/qEtP1GG4V24gwNE8gxvc47kApGa4TlBpGR4ThAhVpMQNZYnD57dIEL8VYL0fHKRHCFCgczwHo8zPFeIkCfrgx0bnjNEiMrGXUTfp+sOkdzw7g+x5A6R3PDwwfAcIpIb3pAR94hQIJsk+hg4SIRCgOG5RQQxPMeIyFI2RvRzLbVjRIi9SIhw33ePCPGFhCgxPOeI5Ib34DlIJM/wBqGDRML3CD4V/XKQiCCZ4Ym6YWUmkmd4ItpSE8kNz0kiFPysGhEKlXdeKDsR4qo7UpWeSG54LhJlZHguEqka3rXfeoMsG1YzPBeIkKdieE4QyTM8J4lUDM8NIhXDc4QI8YzXuN0jQgF06L0zROAMz4G/sIfPgG2t5RAR0PDcuesQ8vtVI4IZnlNEqA4wPLeIPoc2VosIhZmGVxSR4Lsdqg6hISRri4+CiLigxAG+KXqkTMNrFzO5xRd0QDfqU3X4XE6kPgBRbwJSmP5IX324T2x4spdHMC5oApJgYFDK0kaApCttNK667my0tIs00xteF4qRWsXNRmMpixRudHdA8IQ33rw4opR7Rd3oDqLbdBN/1ZnCqD018fyL7eSZAemnPdRszLU+Un+yJT0ett+Ico5wp8vNWWgOiF5Y5pg+6geLr+XCq5/5d0UhlL02D2t1V0/a20TkmaeKGKXL+WzK6mbGaTNaZ9tZtztPPlF/bG0t3xRf4rM8v375eSzvUGCyreCk5epNw67exPJWxYhaFZz8j4dVCqTP3Rmqt4NGlXY5SRpm+51orrbfsEmR8LATDcYPldgtaD/yvKo7OuEK7rqFq7czWqKq7V6XqGo7DOIK7gKZOHnFdupM5M5uqmlPSf4fO97iCu5KjKu3c3Siqu3ujSu4AztOEqPShRPx7uVLDuVE5UuM6FI2ygJClNQZ5XHy75ohDxEedsNyhJMfdrOWC8CIPrcwv344kaAGWrMLIsK4ia7t5HwJXGUIJLp2YsQ4dCEonAgPZ1frGJFwlhVAf8fjv6pEcWI0vU5iVH95kJ/Y5K335+1t3futShQnRleoM/j5XoYXut2jxGC7iSpRnBgV7OTMk6Y8n0A/bv/9+L5TJorrjCI7RiSYy0ZD7bUbx1cp1nqM8dubOlGcGOXdwBIsOs1KeWKN18l9d4snv5Nr1ZtoECXL3opwckjKE+tj/O/G+5FcpHctItyy34D1vS7sHZjd7RfRuDeJI+lNjyiuM7ZWwwkUQHslHLe99XqXGB0eaxPFidHSnpPTPnwq+jq5Rr3x7e36I/7f+299omQ3IDvhxCgogL709v51101+TDD+8zcPER4uLJS4fgAMoC/d7g7OEBteT8e9j/XwYroBG2xhr7186+N3nC1M4h/if9bveYkwHhh9lMaR8rvnsdu9H+A+NHKGS0XG6gyFmuFE63WSd0/ed2/YCJGpBizxMmsGkcZ/ertd7+MzvzNBhHHHQGIUTDNqBrkmk68fzBAliVG+cOJ+9psuMJkiihOjHA1YRjNrBrCMESWJkWY4kRCc8gBkkChJjHTCifYBNQNcRol0FnoAawa4DBPhoVqdAa4Z4DJNFIcTvAFLPFibVEnmieB1BrhNqiQbRHGdASjbdVOeLNkhym7AAtqkmrJEFNcZ0gZsPV/KI5M1orjOED7PyG6T5pBFItyIUp3cz26T5pFNotQGLPHuDaY8KbJLdNmANZzypMg20WmdwdNfPDUq+0S4NWIBZ4zxgI1MpzwpKoAoVucp6kZPtu+3vYohKlLVI/oPvLDD1gwexmUAAAAASUVORK5CYII=;" vertex="1" parent="1">
          <mxGeometry x="1103.8100000000002" y="309" width="113.13" height="131" as="geometry" />
        </mxCell>
        <mxCell id="NvOOtcey1EjylT1S1K5s-1" value="" style="shape=image;verticalLabelPosition=bottom;labelBackgroundColor=default;verticalAlign=top;aspect=fixed;imageAspect=0;image=https://www.docker.com/wp-content/uploads/2021/10/Moby-logo-sm.png;clipPath=inset(19.67% 16% 20.67% 14%);" vertex="1" parent="1">
          <mxGeometry x="1101.71" y="249" width="117.32" height="100" as="geometry" />
        </mxCell>
        <mxCell id="4RZhgtHsSrFHhhY4TR-D-10" value="" style="shape=image;verticalLabelPosition=bottom;labelBackgroundColor=default;verticalAlign=top;aspect=fixed;imageAspect=0;image=https://c-3d.niceshops.com/upload/image/product/large/default/noctua-nf-a9x14-fan-pwm-298403-en.jpg;" vertex="1" parent="1">
          <mxGeometry x="300" y="425" width="121.23" height="160" as="geometry" />
        </mxCell>
        <mxCell id="4RZhgtHsSrFHhhY4TR-D-11" value="" style="endArrow=none;html=1;rounded=0;entryX=0;entryY=0.5;entryDx=0;entryDy=0;exitX=1;exitY=0.5;exitDx=0;exitDy=0;" edge="1" parent="1" source="4RZhgtHsSrFHhhY4TR-D-10" target="xicnDhv7UWAI21oDy9mo-1">
          <mxGeometry width="50" height="50" relative="1" as="geometry">
            <mxPoint x="460" y="630" as="sourcePoint" />
            <mxPoint x="510" y="580" as="targetPoint" />
          </mxGeometry>
        </mxCell>
        <mxCell id="4RZhgtHsSrFHhhY4TR-D-12" value="GPIO PWM" style="edgeLabel;html=1;align=center;verticalAlign=middle;resizable=0;points=[];" vertex="1" connectable="0" parent="4RZhgtHsSrFHhhY4TR-D-11">
          <mxGeometry x="-0.2437" y="3" relative="1" as="geometry">
            <mxPoint as="offset" />
          </mxGeometry>
        </mxCell>
        <mxCell id="4RZhgtHsSrFHhhY4TR-D-13" value="Back End" style="shape=image;verticalLabelPosition=bottom;labelBackgroundColor=default;verticalAlign=top;aspect=fixed;imageAspect=0;image=https://www.edureka.co/blog/wp-content/uploads/2020/01/download-1.png;" vertex="1" parent="1">
          <mxGeometry x="1080" y="590" width="160.71" height="90" as="geometry" />
        </mxCell>
        <mxCell id="4RZhgtHsSrFHhhY4TR-D-14" value="" style="shape=image;verticalLabelPosition=bottom;labelBackgroundColor=default;verticalAlign=top;aspect=fixed;imageAspect=0;image=https://www.docker.com/wp-content/uploads/2021/10/Moby-logo-sm.png;clipPath=inset(19.67% 16% 20.67% 14%);" vertex="1" parent="1">
          <mxGeometry x="1101.71" y="510" width="117.32" height="100" as="geometry" />
        </mxCell>
        <mxCell id="4RZhgtHsSrFHhhY4TR-D-16" value="" style="endArrow=classic;html=1;rounded=0;exitX=1;exitY=0.75;exitDx=0;exitDy=0;entryX=0;entryY=0.5;entryDx=0;entryDy=0;" edge="1" parent="1" source="hOKIO8DQP1o-la0QWbHK-1" target="4RZhgtHsSrFHhhY4TR-D-13">
          <mxGeometry width="50" height="50" relative="1" as="geometry">
            <mxPoint x="1120" y="490" as="sourcePoint" />
            <mxPoint x="1170" y="440" as="targetPoint" />
          </mxGeometry>
        </mxCell>
        <mxCell id="4RZhgtHsSrFHhhY4TR-D-17" value="" style="endArrow=classic;html=1;rounded=0;exitX=1;exitY=0.5;exitDx=0;exitDy=0;entryX=0;entryY=0.5;entryDx=0;entryDy=0;" edge="1" parent="1" source="hOKIO8DQP1o-la0QWbHK-1" target="4RZhgtHsSrFHhhY4TR-D-1">
          <mxGeometry width="50" height="50" relative="1" as="geometry">
            <mxPoint x="1010" y="520" as="sourcePoint" />
            <mxPoint x="1060" y="470" as="targetPoint" />
          </mxGeometry>
        </mxCell>
        <mxCell id="4RZhgtHsSrFHhhY4TR-D-18" value="" style="endArrow=none;dashed=1;html=1;dashPattern=1 3;strokeWidth=2;rounded=0;exitX=1;exitY=0.5;exitDx=0;exitDy=0;entryX=0;entryY=0.5;entryDx=0;entryDy=0;" edge="1" parent="1" source="4RZhgtHsSrFHhhY4TR-D-1" target="4RZhgtHsSrFHhhY4TR-D-20">
          <mxGeometry width="50" height="50" relative="1" as="geometry">
            <mxPoint x="1360" y="410" as="sourcePoint" />
            <mxPoint x="1420" y="375" as="targetPoint" />
          </mxGeometry>
        </mxCell>
        <mxCell id="4RZhgtHsSrFHhhY4TR-D-22" value="IP Connection" style="edgeLabel;html=1;align=center;verticalAlign=middle;resizable=0;points=[];" vertex="1" connectable="0" parent="4RZhgtHsSrFHhhY4TR-D-18">
          <mxGeometry x="-0.1019" y="-4" relative="1" as="geometry">
            <mxPoint as="offset" />
          </mxGeometry>
        </mxCell>
        <mxCell id="4RZhgtHsSrFHhhY4TR-D-20" value="LAN Enabled Device" style="image;html=1;image=img/lib/clip_art/computers/Monitor_128x128.png" vertex="1" parent="1">
          <mxGeometry x="1450" y="299.5" width="180" height="150" as="geometry" />
        </mxCell>
        <mxCell id="4RZhgtHsSrFHhhY4TR-D-21" value="" style="shape=image;verticalLabelPosition=bottom;labelBackgroundColor=default;verticalAlign=top;aspect=fixed;imageAspect=0;image=https://upload.wikimedia.org/wikipedia/commons/thumb/e/e1/Google_Chrome_icon_%28February_2022%29.svg/640px-Google_Chrome_icon_%28February_2022%29.svg.png;" vertex="1" parent="1">
          <mxGeometry x="1570" y="379.5" width="70" height="70" as="geometry" />
        </mxCell>
        <mxCell id="4RZhgtHsSrFHhhY4TR-D-23" value="IP Connection" style="endArrow=none;dashed=1;html=1;dashPattern=1 3;strokeWidth=2;rounded=0;entryX=0;entryY=0.75;entryDx=0;entryDy=0;exitX=1;exitY=0.5;exitDx=0;exitDy=0;" edge="1" parent="1" source="4RZhgtHsSrFHhhY4TR-D-13" target="4RZhgtHsSrFHhhY4TR-D-20">
          <mxGeometry width="50" height="50" relative="1" as="geometry">
            <mxPoint x="1500" y="560" as="sourcePoint" />
            <mxPoint x="1550" y="510" as="targetPoint" />
          </mxGeometry>
        </mxCell>
        <mxCell id="4RZhgtHsSrFHhhY4TR-D-25" value="" style="endArrow=none;html=1;rounded=0;entryX=0;entryY=0.75;entryDx=0;entryDy=0;exitX=1.007;exitY=0.707;exitDx=0;exitDy=0;exitPerimeter=0;" edge="1" parent="1" source="4RZhgtHsSrFHhhY4TR-D-10" target="xicnDhv7UWAI21oDy9mo-1">
          <mxGeometry width="50" height="50" relative="1" as="geometry">
            <mxPoint x="510" y="610" as="sourcePoint" />
            <mxPoint x="560" y="560" as="targetPoint" />
          </mxGeometry>
        </mxCell>
        <mxCell id="4RZhgtHsSrFHhhY4TR-D-26" value="GPIO TACH" style="edgeLabel;html=1;align=center;verticalAlign=middle;resizable=0;points=[];" vertex="1" connectable="0" parent="4RZhgtHsSrFHhhY4TR-D-25">
          <mxGeometry x="-0.2908" y="3" relative="1" as="geometry">
            <mxPoint as="offset" />
          </mxGeometry>
        </mxCell>
      </root>
    </mxGraphModel>
  </diagram>
</mxfile>
